# xmcd CD database file
#
# Track frame offsets:
#	187
#	15822
#	32335
#	48055
#	61950
#	84187
#	103795
#	124085
#	146010
#	164772
#	185445
#
# Disc length: 2722 seconds
#
# Revision: 2
# Processed by: cddbd v1.5PL3 Copyright (c) Steve Scherf et al.
# Submitted via: CDex 1.51
#
DISCID=810aa00b
DTITLE=UP-BEAT - inner ocean
DYEAR=1900
DGENRE=Rock
TTITLE0=Time Bomb
TTITLE1=Nervous Breakdown
TTITLE2=Shadow Dance in Blue Glass
TTITLE3=Doctor
TTITLE4=Wax and wane 〜月を売った女神〜
TTITLE5=Lady party doll
TTITLE6=Kiss in the moonlight
TTITLE7=SAYONARA SEKAI
TTITLE8=Raindrops
TTITLE9=Human dolls
TTITLE10=NEW DREAM 〜BAD MOON RISING〜
EXTD=
EXTT0=
EXTT1=
EXTT2=
EXTT3=
EXTT4=
EXTT5=
EXTT6=
EXTT7=
EXTT8=
EXTT9=
EXTT10=
PLAYORDER=
